HIERARCHY
ROOT Hips
{
	OFFSET 0.00000 0.00000 0.00000
	CHANNELS 6 Xposition Yposition Zposition Zrotation Yrotation Xrotation 
	JOINT LHipJoint
	{
		OFFSET 0 0 0
		CHANNELS 3 Zrotation Yrotation Xrotation
		JOINT LeftHip
		{
			OFFSET 1.26600 -1.82114 0.91038
			CHANNELS 3 Zrotation Yrotation Xrotation
			JOINT LeftKnee
			{
				OFFSET 2.50076 -6.87080 0.00000
				CHANNELS 3 Zrotation Yrotation Xrotation
				JOINT LeftAnkle
				{
					OFFSET 2.57364 -7.07102 0.00000
					CHANNELS 3 Zrotation Yrotation Xrotation
					JOINT LeftToe
					{
						OFFSET 0.13572 -0.37290 1.97004
						CHANNELS 3 Zrotation Yrotation Xrotation
						End Site
						{
							OFFSET 0.00000 -0.00000 1.01383
						}
					}
				}
			}
		}
	}
	JOINT RHipJoint
	{
		OFFSET 0 0 0
		CHANNELS 3 Zrotation Yrotation Xrotation
		JOINT RightHip
		{
			OFFSET -1.20803 -1.82114 0.91038
			CHANNELS 3 Zrotation Yrotation Xrotation
			JOINT RightKnee
			{
				OFFSET -2.54916 -7.00377 0.00000
				CHANNELS 3 Zrotation Yrotation Xrotation
				JOINT RightAnkle
				{
					OFFSET -2.56374 -7.04382 0.00000
					CHANNELS 3 Zrotation Yrotation Xrotation
					JOINT RightToe
					{
						OFFSET -0.23520 -0.64621 2.09921
						CHANNELS 3 Zrotation Yrotation Xrotation
						End Site
						{
							OFFSET -0.00000 -0.00000 1.10065
						}
					}
				}
			}
		}
	}
	JOINT lowerback
	{
		OFFSET 0 0 0
		CHANNELS 3 Zrotation Yrotation Xrotation
		JOINT Chest
		{
			OFFSET 0.05492 2.10797 -0.12074
			CHANNELS 3 Zrotation Yrotation Xrotation
			JOINT Chest2
			{
				OFFSET 0.04577 2.11592 -0.04483
				CHANNELS 3 Zrotation Yrotation Xrotation
				JOINT lowerneck
				{
					OFFSET 0 0 0
					CHANNELS 3 Zrotation Yrotation Xrotation
					JOINT Neck
					{
						OFFSET -0.10759 1.80167 0.15770
						CHANNELS 3 Zrotation Yrotation Xrotation
						JOINT Head
						{
							OFFSET 0.09237 1.77509 -0.40848
							CHANNELS 3 Zrotation Yrotation Xrotation
							End Site
							{
								OFFSET 0.03805 1.84093 -0.15754
							}
						}
					}
				}
				JOINT LeftCollar
				{
					OFFSET 0 0 0
					CHANNELS 3 Zrotation Yrotation Xrotation
					JOINT LeftShoulder
					{
						OFFSET 3.42372 1.09575 -0.28209
CHANNELS 3 Zrotation Xrotation Yrotation
						JOINT LeftElbow
						{
OFFSET 0 -4.956810 0.000000
CHANNELS 3 Zrotation Xrotation Yrotation
							JOINT LeftWrist
							{
OFFSET 0 -3.409150 0.000000
CHANNELS 3 Zrotation Xrotation Yrotation
								JOINT lhand
								{
									OFFSET 0 0 0
CHANNELS 3 Zrotation Xrotation Yrotation
									JOINT LFingers
									{
OFFSET 0 -0.616400 0.000000
CHANNELS 3 Zrotation Xrotation Yrotation
										End Site
										{
OFFSET 0 -0.496960 0.000000
										}
									}
								}
								JOINT LThumb
								{
OFFSET 0 0.000000 0.000000
CHANNELS 3 Zrotation Xrotation Yrotation
									End Site
									{
OFFSET 0 -0.504550 0.504550
									}
								}
							}
						}
					}
				}
				JOINT RightCollar
				{
					OFFSET 0 0 0
					CHANNELS 3 Zrotation Yrotation Xrotation
					JOINT RightShoulder
					{
						OFFSET -3.24731 1.15872 -0.32221
CHANNELS 3 Zrotation Xrotation Yrotation
						JOINT RightElbow
						{
OFFSET 0 -5.352000 0.000000
CHANNELS 3 Zrotation Xrotation Yrotation
							JOINT RightWrist
							{
OFFSET 0 -3.437210 -0.000000
CHANNELS 3 Zrotation Xrotation Yrotation
								JOINT rhand
								{
									OFFSET 0 0 0
CHANNELS 3 Zrotation Xrotation Yrotation
									JOINT RFingers
									{
OFFSET 0 -0.720090 0.000000
CHANNELS 3 Zrotation Xrotation Yrotation
										End Site
										{
OFFSET 0 -0.580560 0.000000
										}
									}
								}
								JOINT RThumb
								{
OFFSET 0 0.000000 0.000000
CHANNELS 3 Zrotation Xrotation Yrotation
									End Site
									{
OFFSET 0 -0.589420 0.589420
									}
								}
							}
						}
					}
				}
			}
		}
	}
}
MOTION
Frames: 10
Frame Time: 0.008333333333333333
30.146700 17.847300 0.263900 -152.819000 -80.895200 154.899000 0.000000 0.000000 0.000000 -12.262700 -12.742400 -13.949600 5.107000 13.503300 41.282800 -0.412100 -14.187200 -3.981600 0.101100 2.050400 5.644900 0.000000 0.000000 0.000000 27.275800 -2.290300 -2.183000 -1.567200 -7.899500 22.409200 -1.067900 6.497700 -18.446100 -0.323300 -3.654700 10.107100 5.512000 1.181900 5.424600 3.735600 1.821600 1.462800 0.642900 0.845300 -1.478100 -9.525700 0.398200 -12.703400 2.310300 0.674900 38.670800 2.639000 -1.405500 15.787500 0.000000 0.000000 0.000000 -2.204800 6.428900 -7.023000 13.704400 -22.310600 2.714900 20.796800 2.517300 -16.393400 0.000000 0.000000 0.000000 -7.125000 0.000000 0.000000 -6.702000 47.335800 0.388000 0.000000 0.000000 0.000000 -6.600400 0.199500 13.453500 -14.652400 -23.659600 -3.085100 -21.608400 -13.849300 -11.693900 0.000000 0.000000 0.000000 7.125000 0.000000 -0.000000 3.882200 17.446700 2.545500
30.209613 17.885081 0.194993 -148.241711 -81.462048 149.900144 0.000000 0.000000 0.000000 -10.906489 -14.943810 -18.002216 6.957857 15.296089 48.714330 -0.437189 -11.788498 2.248656 0.484130 4.461509 12.378951 0.000000 0.000000 0.000000 27.947793 -3.459724 -1.010086 -1.256726 -7.106768 20.032051 -0.951601 6.273432 -17.401979 -0.402838 -4.074832 11.287367 5.897015 1.077157 6.194008 4.004284 1.726784 1.842839 0.701955 0.790283 -1.512271 -10.271074 0.380749 -12.795517 2.825429 0.718077 38.579765 3.004645 -1.408717 15.753620 0.000000 0.000000 0.000000 -3.577315 5.923907 -7.616931 13.713937 -22.324353 2.718514 24.547790 4.387143 -17.284572 0.000000 0.000000 0.000000 -7.125000 0.000000 0.000000 -3.313723 48.836873 0.313912 0.000000 0.000000 0.000000 -7.591952 -0.804352 13.734720 -14.697164 -23.722474 -3.103125 -22.594774 -14.106310 -10.990997 0.000000 0.000000 0.000000 7.125000 0.000000 0.000000 3.165056 18.110801 2.027585
30.255166 17.876724 0.104661 -146.087755 -81.618588 147.397319 0.000000 0.000000 0.000000 -9.781535 -14.341527 -23.263582 8.977289 16.792797 56.011093 -0.177186 -8.660744 7.892889 0.067936 1.666534 4.585524 0.000000 0.000000 0.000000 28.451987 -4.521309 0.181015 -0.981555 -6.306349 17.675840 -0.857137 6.058667 -16.507443 -0.379573 -3.956752 10.954990 5.235761 0.789580 6.868296 4.679041 1.339224 1.961773 1.789356 0.581300 -1.808963 -10.956126 0.608590 -12.152759 2.530831 1.249700 38.396069 3.066783 -1.325379 15.469216 0.000000 0.000000 0.000000 -5.712568 6.073901 -7.403583 13.946053 -22.657486 2.807273 26.473252 5.059867 -17.444507 0.000000 0.000000 0.000000 -7.125000 0.000000 0.000000 -1.463469 49.317494 0.155832 0.000000 0.000000 0.000000 -8.834620 -1.134899 14.331187 -15.087603 -24.268021 -3.261881 -22.925028 -13.668059 -10.798176 0.000000 0.000000 0.000000 7.125000 0.000000 0.000000 2.925127 18.288927 1.861822
30.256718 17.904411 0.027517 -138.014259 -80.852763 138.780706 0.000000 0.000000 0.000000 -7.494371 -13.000420 -28.689173 11.722739 18.270432 65.106613 -0.002780 -4.786338 6.731408 0.449328 4.299913 11.922083 0.000000 0.000000 0.000000 30.215187 -5.967678 2.380521 -0.615311 -5.019912 13.965323 -0.738316 5.484413 -15.309706 -0.204224 -2.909998 8.028384 6.252992 0.751897 7.535739 5.446758 1.345531 2.383341 2.018841 0.560207 -1.731683 -11.671767 0.646835 -12.439706 2.861551 1.442829 38.520836 3.373679 -1.305604 15.576838 0.000000 0.000000 0.000000 -6.981951 5.815705 -8.657241 14.213585 -23.039248 2.911138 28.720965 7.139935 -18.450945 0.000000 0.000000 0.000000 -7.125000 0.000000 0.000000 0.599020 50.808215 -0.085947 0.000000 0.000000 0.000000 -10.681404 -1.754317 17.263350 -15.240611 -24.480212 -3.324968 -23.361250 -15.964956 -10.594966 0.000000 0.000000 0.000000 7.125000 0.000000 0.000000 2.609361 18.469764 1.649937
30.228581 17.914892 -0.045647 -132.967252 -80.763798 133.664063 0.000000 0.000000 0.000000 -6.382896 -11.560874 -35.104164 15.235720 19.445984 75.945074 -0.016535 -4.839231 -2.765624 0.130473 2.328115 6.413299 0.000000 0.000000 0.000000 31.080991 -7.413179 4.704994 -0.282792 -3.419495 9.449044 -0.507990 5.617199 -12.719791 -0.283846 -3.426266 9.467805 7.385072 1.049836 7.588214 5.194557 1.805965 2.554030 1.090330 0.795310 -1.529855 -10.997477 0.203420 -12.748192 3.034780 0.558300 38.837791 3.205481 -1.564470 15.894043 0.000000 0.000000 0.000000 -6.650999 5.773836 -10.985367 14.477323 -23.412915 3.015192 29.026895 5.091397 -11.695270 0.000000 0.000000 0.000000 -7.125000 0.000000 0.000000 1.691223 43.294209 0.065209 0.000000 0.000000 0.000000 -10.337449 -2.487480 16.049067 -14.915188 -24.027892 -3.191375 -23.957824 -16.105870 -11.178655 0.000000 0.000000 0.000000 7.125000 0.000000 0.000000 2.215269 17.783008 1.433867
30.171612 17.931994 -0.123478 -126.554634 -80.469830 126.554795 0.000000 0.000000 0.000000 -5.117847 -10.433285 -40.567029 18.438466 19.940890 85.429877 0.091726 -5.639685 -6.242248 0.114715 2.179930 6.003286 0.000000 0.000000 0.000000 32.121209 -9.496714 8.338237 -0.038635 -1.268529 3.488035 -0.284390 4.820336 -9.562813 -0.256919 -3.261014 9.006408 8.912549 1.366177 8.355011 4.748587 2.386285 2.884274 -0.275889 1.090555 -1.499552 -10.229533 -0.333539 -12.939643 3.497775 -0.611391 38.902013 3.090157 -1.863824 16.074658 0.000000 0.000000 0.000000 -5.280603 5.581488 -14.283427 14.572803 -23.547679 3.053261 31.604769 9.899943 -18.822562 0.000000 0.000000 0.000000 -7.125000 0.000000 0.000000 3.502156 51.759905 -0.584675 0.000000 0.000000 0.000000 -9.174370 -2.958680 14.149801 -14.730357 -23.769237 -3.116486 -24.113973 -15.513550 -11.800310 0.000000 0.000000 0.000000 7.125000 0.000000 0.000000 2.137311 17.093088 1.415699
30.084003 17.945238 -0.189273 -127.249489 -80.604630 126.344947 0.000000 0.000000 0.000000 -5.092932 -8.795318 -45.575027 21.116607 19.969654 93.266241 0.170072 -8.609858 -8.902352 0.096653 2.003318 5.514904 0.000000 0.000000 0.000000 31.784851 -10.687186 11.302752 0.000000 0.000000 0.000000 -0.207636 4.345750 -8.197416 -0.326576 -3.673053 10.158710 8.694051 1.538529 9.019577 4.519896 2.632452 3.295265 -0.428284 1.222004 -1.419975 -10.001199 -0.437017 -13.095366 3.742905 -0.905729 38.992966 3.114056 -1.917560 16.183980 0.000000 0.000000 0.000000 -4.687827 5.489951 -16.029334 14.596723 -23.581378 3.062843 20.747989 3.678920 -16.875609 0.000000 0.000000 0.000000 -7.125000 0.000000 0.000000 -6.866675 47.833159 0.482112 0.000000 0.000000 0.000000 -8.694641 -3.269113 13.905431 -14.453875 -23.379735 -3.005876 -24.269823 -15.306937 -11.121151 0.000000 0.000000 0.000000 7.125000 0.000000 0.000000 1.993383 17.815626 1.288717
29.985786 17.927022 -0.314796 -125.741932 -79.193555 123.935270 0.000000 0.000000 0.000000 -2.856835 -6.387991 -50.522942 23.014468 19.780414 98.844718 -0.053986 -13.818312 -9.042408 0.004842 0.442996 1.217133 0.000000 0.000000 0.000000 33.338756 -10.841178 12.778547 0.000000 0.000000 0.000000 -0.210490 4.335553 -8.248265 -0.419915 -4.159323 11.525269 9.408873 1.946168 10.073797 4.848905 3.313025 3.561133 -0.573124 1.539141 -1.646020 -10.253248 -0.647695 -13.043312 3.899734 -1.216990 39.072030 3.178924 -2.064832 16.250150 0.000000 0.000000 0.000000 -4.329574 5.514545 -16.241406 14.455720 -23.382489 3.006598 19.261959 3.411515 -16.115788 0.000000 0.000000 0.000000 -7.125000 0.000000 0.000000 -8.074460 46.835560 0.368165 0.000000 0.000000 0.000000 -7.969314 -3.167086 12.918842 -14.332928 -23.208688 -2.958069 -24.917585 -15.031788 -11.382994 0.000000 0.000000 0.000000 7.125000 0.000000 0.000000 1.553467 17.466331 1.015909
29.874496 17.894382 -0.317990 -128.380250 -79.872147 126.551023 0.000000 0.000000 0.000000 -3.861472 -6.214845 -55.572231 23.989819 19.613882 101.738037 -0.224478 -16.520304 -9.193574 0.009653 -0.631531 -1.735413 0.000000 0.000000 0.000000 32.354347 -10.923183 13.323370 0.000000 0.000000 0.000000 -0.214312 4.129391 -8.292359 -0.549474 -4.746161 13.186545 9.798273 2.076049 10.219323 4.027626 3.551148 3.566278 -1.670952 1.678658 -1.623664 -10.482181 -0.714422 -12.633932 4.378576 -1.452451 38.748950 3.384073 -2.113104 16.007210 0.000000 0.000000 0.000000 -3.393783 5.281556 -16.745313 14.276183 -23.128219 2.935752 20.473283 3.721961 -17.133944 0.000000 0.000000 0.000000 -7.125000 0.000000 0.000000 -7.193188 48.063030 0.546163 0.000000 0.000000 0.000000 -7.209255 -2.446400 15.034611 -14.720272 -23.754916 -3.112351 -24.397599 -16.411578 -10.713904 0.000000 0.000000 0.000000 7.125000 0.000000 0.000000 1.883628 18.246791 1.199656
29.747373 17.864707 -0.370253 -128.200583 -79.765544 126.103902 0.000000 0.000000 0.000000 -3.486956 -6.016812 -59.612352 24.071951 19.597721 101.982828 -0.363794 -18.460466 -9.410985 0.171908 -2.670838 -7.363572 0.000000 0.000000 0.000000 32.633505 -11.204129 14.084447 0.000000 0.000000 0.000000 -0.251635 3.694913 -8.923953 -0.251941 -3.229808 8.919302 10.005904 2.092298 10.804490 3.850114 3.649058 3.695534 -2.002410 1.723344 -1.772192 -10.554298 -0.718200 -12.928161 4.409180 -1.396799 38.848223 3.425698 -2.094815 16.127069 0.000000 0.000000 0.000000 -2.956104 5.150543 -16.148360 14.233341 -23.067335 2.918940 20.605976 4.386742 -17.833881 0.000000 0.000000 0.000000 -7.125000 0.000000 0.000000 -7.251375 48.812005 0.685047 0.000000 0.000000 0.000000 -6.646465 -2.248679 16.377186 -14.814937 -23.887624 -3.150651 -25.200954 -16.716041 -11.235243 0.000000 0.000000 0.000000 7.125000 0.000000 0.000000 1.346689 17.599496 0.876716
